<?xml version="1.0" encoding="UTF-8" standalone="no"?>
<!DOCTYPE svg PUBLIC "-//W3C//DTD SVG 1.1//EN"
 "http://www.w3.org/Graphics/SVG/1.1/DTD/svg11.dtd">
<!-- Generated by graphviz version 2.40.1 (20161225.0304)
 -->
<!-- Title: %3 Pages: 1 -->
<svg width="724pt" height="247pt"
 viewBox="0.00 0.00 724.00 247.00" xmlns="http://www.w3.org/2000/svg" xmlns:xlink="http://www.w3.org/1999/xlink">
<g id="graph0" class="graph" transform="scale(1 1) rotate(0) translate(4 243)">
<title>%3</title>
<polygon fill="#ffffff" stroke="transparent" points="-4,4 -4,-243 720,-243 720,4 -4,4"/>
<!-- ANDs a&#45;&gt;[&#39;b&#39;, &#39;c&#39;] -->
<g id="node1" class="node">
<title>ANDs a&#45;&gt;[&#39;b&#39;, &#39;c&#39;]</title>
<polygon fill="none" stroke="#000000" points="268,-147 246.5,-125.5 268,-104 289.5,-125.5 268,-147"/>
<text text-anchor="middle" x="268" y="-115.5" font-family="Times,serif" font-size="40.00" fill="#000000">+</text>
</g>
<!-- b -->
<g id="node3" class="node">
<title>b</title>
<path fill="none" stroke="#000000" d="M343,-202.5C343,-202.5 373,-202.5 373,-202.5 379,-202.5 385,-208.5 385,-214.5 385,-214.5 385,-226.5 385,-226.5 385,-232.5 379,-238.5 373,-238.5 373,-238.5 343,-238.5 343,-238.5 337,-238.5 331,-232.5 331,-226.5 331,-226.5 331,-214.5 331,-214.5 331,-208.5 337,-202.5 343,-202.5"/>
<text text-anchor="middle" x="358" y="-216.8" font-family="Times,serif" font-size="14.00" fill="#000000">b</text>
</g>
<!-- ANDs a&#45;&gt;[&#39;b&#39;, &#39;c&#39;]&#45;&gt;b -->
<g id="edge2" class="edge">
<title>ANDs a&#45;&gt;[&#39;b&#39;, &#39;c&#39;]&#45;&gt;b</title>
<path fill="none" stroke="#000000" stroke-width="2" d="M268,-147.057C268,-175.086 268,-220.5 268,-220.5 268,-220.5 320.997,-220.5 320.997,-220.5"/>
<polygon fill="#000000" stroke="#000000" stroke-width="2" points="320.9971,-224.0001 330.997,-220.5 320.997,-217.0001 320.9971,-224.0001"/>
</g>
<!-- c -->
<g id="node4" class="node">
<title>c</title>
<path fill="none" stroke="#000000" d="M343,-107.5C343,-107.5 373,-107.5 373,-107.5 379,-107.5 385,-113.5 385,-119.5 385,-119.5 385,-131.5 385,-131.5 385,-137.5 379,-143.5 373,-143.5 373,-143.5 343,-143.5 343,-143.5 337,-143.5 331,-137.5 331,-131.5 331,-131.5 331,-119.5 331,-119.5 331,-113.5 337,-107.5 343,-107.5"/>
<text text-anchor="middle" x="358" y="-121.8" font-family="Times,serif" font-size="14.00" fill="#000000">c</text>
</g>
<!-- ANDs a&#45;&gt;[&#39;b&#39;, &#39;c&#39;]&#45;&gt;c -->
<g id="edge3" class="edge">
<title>ANDs a&#45;&gt;[&#39;b&#39;, &#39;c&#39;]&#45;&gt;c</title>
<path fill="none" stroke="#000000" stroke-width="2" d="M289.7865,-125.5C289.7865,-125.5 320.9398,-125.5 320.9398,-125.5"/>
<polygon fill="#000000" stroke="#000000" stroke-width="2" points="320.9399,-129.0001 330.9398,-125.5 320.9398,-122.0001 320.9399,-129.0001"/>
</g>
<!-- a -->
<g id="node2" class="node">
<title>a</title>
<path fill="none" stroke="#000000" d="M163,-107.5C163,-107.5 193,-107.5 193,-107.5 199,-107.5 205,-113.5 205,-119.5 205,-119.5 205,-131.5 205,-131.5 205,-137.5 199,-143.5 193,-143.5 193,-143.5 163,-143.5 163,-143.5 157,-143.5 151,-137.5 151,-131.5 151,-131.5 151,-119.5 151,-119.5 151,-113.5 157,-107.5 163,-107.5"/>
<text text-anchor="middle" x="178" y="-121.8" font-family="Times,serif" font-size="14.00" fill="#000000">a</text>
</g>
<!-- a&#45;&gt;ANDs a&#45;&gt;[&#39;b&#39;, &#39;c&#39;] -->
<g id="edge1" class="edge">
<title>a&#45;&gt;ANDs a&#45;&gt;[&#39;b&#39;, &#39;c&#39;]</title>
<path fill="none" stroke="#000000" stroke-width="2" d="M205.003,-125.5C205.003,-125.5 236.4428,-125.5 236.4428,-125.5"/>
<polygon fill="#000000" stroke="#000000" stroke-width="2" points="236.4428,-129.0001 246.4428,-125.5 236.4427,-122.0001 236.4428,-129.0001"/>
</g>
<!-- ANDm [&#39;c&#39;, &#39;b&#39;]&#45;&gt;d -->
<g id="node5" class="node">
<title>ANDm [&#39;c&#39;, &#39;b&#39;]&#45;&gt;d</title>
<polygon fill="none" stroke="#000000" points="448,-147 426.5,-125.5 448,-104 469.5,-125.5 448,-147"/>
<text text-anchor="middle" x="448" y="-115.5" font-family="Times,serif" font-size="40.00" fill="#000000">+</text>
</g>
<!-- b&#45;&gt;ANDm [&#39;c&#39;, &#39;b&#39;]&#45;&gt;d -->
<g id="edge6" class="edge">
<title>b&#45;&gt;ANDm [&#39;c&#39;, &#39;b&#39;]&#45;&gt;d</title>
<path fill="none" stroke="#000000" stroke-width="2" d="M385.003,-220.5C411.513,-220.5 448,-220.5 448,-220.5 448,-220.5 448,-157.057 448,-157.057"/>
<polygon fill="#000000" stroke="#000000" stroke-width="2" points="451.5001,-157.0569 448,-147.057 444.5001,-157.057 451.5001,-157.0569"/>
</g>
<!-- c&#45;&gt;ANDm [&#39;c&#39;, &#39;b&#39;]&#45;&gt;d -->
<g id="edge5" class="edge">
<title>c&#45;&gt;ANDm [&#39;c&#39;, &#39;b&#39;]&#45;&gt;d</title>
<path fill="none" stroke="#000000" stroke-width="2" d="M385.003,-125.5C385.003,-125.5 416.4428,-125.5 416.4428,-125.5"/>
<polygon fill="#000000" stroke="#000000" stroke-width="2" points="416.4428,-129.0001 426.4428,-125.5 416.4427,-122.0001 416.4428,-129.0001"/>
</g>
<!-- d -->
<g id="node6" class="node">
<title>d</title>
<path fill="none" stroke="#000000" d="M523,-107.5C523,-107.5 553,-107.5 553,-107.5 559,-107.5 565,-113.5 565,-119.5 565,-119.5 565,-131.5 565,-131.5 565,-137.5 559,-143.5 553,-143.5 553,-143.5 523,-143.5 523,-143.5 517,-143.5 511,-137.5 511,-131.5 511,-131.5 511,-119.5 511,-119.5 511,-113.5 517,-107.5 523,-107.5"/>
<text text-anchor="middle" x="538" y="-121.8" font-family="Times,serif" font-size="14.00" fill="#000000">d</text>
</g>
<!-- ANDm [&#39;c&#39;, &#39;b&#39;]&#45;&gt;d&#45;&gt;d -->
<g id="edge4" class="edge">
<title>ANDm [&#39;c&#39;, &#39;b&#39;]&#45;&gt;d&#45;&gt;d</title>
<path fill="none" stroke="#000000" stroke-width="2" d="M469.7865,-125.5C469.7865,-125.5 500.9398,-125.5 500.9398,-125.5"/>
<polygon fill="#000000" stroke="#000000" stroke-width="2" points="500.9399,-129.0001 510.9398,-125.5 500.9398,-122.0001 500.9399,-129.0001"/>
</g>
<!-- XORm {&#39;d&#39;, &#39;f&#39;}&#45;&gt;end -->
<g id="node12" class="node">
<title>XORm {&#39;d&#39;, &#39;f&#39;}&#45;&gt;end</title>
<polygon fill="none" stroke="#000000" points="622.5,-93 601,-71.5 622.5,-50 644,-71.5 622.5,-93"/>
<text text-anchor="middle" x="622.5" y="-63" font-family="Times,serif" font-size="35.00" fill="#000000">×</text>
</g>
<!-- d&#45;&gt;XORm {&#39;d&#39;, &#39;f&#39;}&#45;&gt;end -->
<g id="edge12" class="edge">
<title>d&#45;&gt;XORm {&#39;d&#39;, &#39;f&#39;}&#45;&gt;end</title>
<path fill="none" stroke="#000000" stroke-width="2" d="M565.3624,-125.5C590.2106,-125.5 623,-125.5 623,-125.5 623,-125.5 623,-102.5324 623,-102.5324"/>
<polygon fill="#000000" stroke="#000000" stroke-width="2" points="626.5001,-102.5324 623,-92.5324 619.5001,-102.5325 626.5001,-102.5324"/>
</g>
<!-- e -->
<g id="node7" class="node">
<title>e</title>
<path fill="none" stroke="#000000" d="M253,-.5C253,-.5 283,-.5 283,-.5 289,-.5 295,-6.5 295,-12.5 295,-12.5 295,-24.5 295,-24.5 295,-30.5 289,-36.5 283,-36.5 283,-36.5 253,-36.5 253,-36.5 247,-36.5 241,-30.5 241,-24.5 241,-24.5 241,-12.5 241,-12.5 241,-6.5 247,-.5 253,-.5"/>
<text text-anchor="middle" x="268" y="-14.8" font-family="Times,serif" font-size="14.00" fill="#000000">e</text>
</g>
<!-- f -->
<g id="node8" class="node">
<title>f</title>
<path fill="none" stroke="#000000" d="M433,-.5C433,-.5 463,-.5 463,-.5 469,-.5 475,-6.5 475,-12.5 475,-12.5 475,-24.5 475,-24.5 475,-30.5 469,-36.5 463,-36.5 463,-36.5 433,-36.5 433,-36.5 427,-36.5 421,-30.5 421,-24.5 421,-24.5 421,-12.5 421,-12.5 421,-6.5 427,-.5 433,-.5"/>
<text text-anchor="middle" x="448" y="-14.8" font-family="Times,serif" font-size="14.00" fill="#000000">f</text>
</g>
<!-- e&#45;&gt;f -->
<g id="edge7" class="edge">
<title>e&#45;&gt;f</title>
<path fill="none" stroke="#000000" stroke-width="2" d="M295.3381,-18.5C295.3381,-18.5 410.9944,-18.5 410.9944,-18.5"/>
<polygon fill="#000000" stroke="#000000" stroke-width="2" points="410.9944,-22.0001 420.9944,-18.5 410.9943,-15.0001 410.9944,-22.0001"/>
</g>
<!-- f&#45;&gt;XORm {&#39;d&#39;, &#39;f&#39;}&#45;&gt;end -->
<g id="edge13" class="edge">
<title>f&#45;&gt;XORm {&#39;d&#39;, &#39;f&#39;}&#45;&gt;end</title>
<path fill="none" stroke="#000000" stroke-width="2" d="M475.3438,-18.5C524.5625,-18.5 623,-18.5 623,-18.5 623,-18.5 623,-40.2483 623,-40.2483"/>
<polygon fill="#000000" stroke="#000000" stroke-width="2" points="619.5001,-40.2482 623,-50.2483 626.5001,-40.2483 619.5001,-40.2482"/>
</g>
<!-- start -->
<g id="node9" class="node">
<title>start</title>
<ellipse fill="none" stroke="#000000" cx="18" cy="-71.5" rx="18" ry="18"/>
</g>
<!-- XORs start&#45;&gt;{&#39;e&#39;, &#39;a&#39;} -->
<g id="node10" class="node">
<title>XORs start&#45;&gt;{&#39;e&#39;, &#39;a&#39;}</title>
<polygon fill="none" stroke="#000000" points="93.5,-93 72,-71.5 93.5,-50 115,-71.5 93.5,-93"/>
<text text-anchor="middle" x="93.5" y="-63" font-family="Times,serif" font-size="35.00" fill="#000000">×</text>
</g>
<!-- start&#45;&gt;XORs start&#45;&gt;{&#39;e&#39;, &#39;a&#39;} -->
<g id="edge8" class="edge">
<title>start&#45;&gt;XORs start&#45;&gt;{&#39;e&#39;, &#39;a&#39;}</title>
<path fill="none" stroke="#000000" stroke-width="2" d="M36.2764,-71.5C36.2764,-71.5 61.9058,-71.5 61.9058,-71.5"/>
<polygon fill="#000000" stroke="#000000" stroke-width="2" points="61.9058,-75.0001 71.9058,-71.5 61.9058,-68.0001 61.9058,-75.0001"/>
</g>
<!-- XORs start&#45;&gt;{&#39;e&#39;, &#39;a&#39;}&#45;&gt;a -->
<g id="edge10" class="edge">
<title>XORs start&#45;&gt;{&#39;e&#39;, &#39;a&#39;}&#45;&gt;a</title>
<path fill="none" stroke="#000000" stroke-width="2" d="M94,-92.5324C94,-107.6947 94,-125.5 94,-125.5 94,-125.5 140.9595,-125.5 140.9595,-125.5"/>
<polygon fill="#000000" stroke="#000000" stroke-width="2" points="140.9595,-129.0001 150.9595,-125.5 140.9595,-122.0001 140.9595,-129.0001"/>
</g>
<!-- XORs start&#45;&gt;{&#39;e&#39;, &#39;a&#39;}&#45;&gt;e -->
<g id="edge9" class="edge">
<title>XORs start&#45;&gt;{&#39;e&#39;, &#39;a&#39;}&#45;&gt;e</title>
<path fill="none" stroke="#000000" stroke-width="2" d="M94,-50.2483C94,-35.5033 94,-18.5 94,-18.5 94,-18.5 230.8125,-18.5 230.8125,-18.5"/>
<polygon fill="#000000" stroke="#000000" stroke-width="2" points="230.8125,-22.0001 240.8125,-18.5 230.8125,-15.0001 230.8125,-22.0001"/>
</g>
<!-- end -->
<g id="node11" class="node">
<title>end</title>
<ellipse fill="none" stroke="#000000" cx="698" cy="-71.5" rx="18" ry="18"/>
</g>
<!-- XORm {&#39;d&#39;, &#39;f&#39;}&#45;&gt;end&#45;&gt;end -->
<g id="edge11" class="edge">
<title>XORm {&#39;d&#39;, &#39;f&#39;}&#45;&gt;end&#45;&gt;end</title>
<path fill="none" stroke="#000000" stroke-width="2" d="M644.3377,-71.5C644.3377,-71.5 669.5306,-71.5 669.5306,-71.5"/>
<polygon fill="#000000" stroke="#000000" stroke-width="2" points="669.5307,-75.0001 679.5306,-71.5 669.5306,-68.0001 669.5307,-75.0001"/>
</g>
</g>
</svg>
